<?xml version="1.0" standalone="no"?>
<!DOCTYPE svg PUBLIC "-//W3C//DTD SVG 20010904//EN"
 "http://www.w3.org/TR/2001/REC-SVG-20010904/DTD/svg10.dtd">
<svg version="1.0" xmlns="http://www.w3.org/2000/svg"
 width="100.000000pt" height="100.000000pt" viewBox="0 0 100.000000 100.000000"
 preserveAspectRatio="xMidYMid meet">
<metadata>
Created by potrace 1.14, written by Peter Selinger 2001-2017
</metadata>
<g transform="translate(0.000000,100.000000) scale(0.100000,-0.100000)"
fill="#000000" stroke="none">
<path d="M0 500 l0 -500 500 0 500 0 0 500 0 500 -500 0 -500 0 0 -500z m990
231 l0 -258 -61 -7 c-99 -10 -103 -9 -118 25 -7 17 -25 35 -40 41 -14 6 -35
15 -46 21 -11 5 -64 18 -119 27 -117 19 -108 6 -126 185 -7 66 -14 126 -16
133 -6 20 -32 14 -40 -10 l-7 -23 -10 23 c-13 29 -35 28 -49 -3 -6 -14 -17
-25 -24 -25 -7 0 -35 -18 -63 -40 -36 -29 -51 -48 -51 -65 0 -30 12 -37 80
-50 40 -8 54 -15 51 -25 -2 -8 -7 -44 -11 -80 -6 -51 -25 -141 -35 -157 -1 -2
-52 -5 -113 -9 l-112 -6 -16 37 c-8 20 -24 39 -35 42 -18 5 -19 16 -19 244 l0
239 490 0 490 0 0 -259z m-544 86 c2 -93 22 -229 36 -243 9 -9 49 -18 99 -24
85 -8 139 -25 139 -43 0 -5 7 -6 16 -3 32 12 54 -22 54 -84 0 -48 -3 -59 -18
-62 -21 -6 -32 -60 -32 -154 0 -54 -7 -84 -20 -84 -4 0 -5 33 -2 72 4 69 2 74
-22 97 -14 14 -26 35 -26 48 0 28 -20 31 -27 3 -6 -22 -58 -36 -93 -25 -33 10
-40 -8 -40 -107 0 -74 -2 -86 -15 -82 -12 5 -15 24 -15 83 0 113 -4 120 -51
114 -32 -5 -39 -3 -39 11 0 9 -6 16 -14 16 -8 0 -18 14 -21 33 -4 17 -12 35
-16 38 -5 3 0 34 11 68 11 35 20 90 20 123 0 53 2 59 25 68 50 19 23 36 -90
56 -22 4 -34 9 -27 11 18 7 15 23 -5 23 -12 0 -7 8 17 30 38 32 63 39 54 15
-4 -10 0 -15 11 -15 12 0 16 6 12 20 -4 17 -1 18 25 13 22 -4 33 -2 40 10 12
23 13 23 14 -26z m-406 -379 c0 -4 -7 -8 -15 -8 -10 0 -15 10 -15 28 1 26 1
26 15 8 8 -11 15 -23 15 -28z m950 -213 l0 -215 -490 0 -490 0 0 195 0 195 23
1 c12 0 75 3 141 5 109 5 120 4 137 -15 11 -11 19 -28 19 -37 0 -18 44 -64 61
-64 7 0 9 -26 6 -72 -5 -86 -2 -98 25 -98 10 0 26 -7 35 -16 9 -9 28 -14 47
-12 l31 3 3 99 3 98 31 -6 c17 -3 41 -6 54 -6 23 0 23 -2 17 -64 -5 -59 -4
-64 16 -71 12 -3 21 -15 21 -26 0 -25 25 -35 59 -23 25 9 26 12 32 119 4 68
11 111 18 113 27 9 40 33 34 63 -8 41 6 49 95 49 l72 0 0 -215z m-540 -5 c0
-38 -4 -70 -9 -70 -12 0 -17 33 -13 93 6 73 22 56 22 -23z m231 -43 c-13 -13
-15 31 -3 60 5 14 8 10 10 -16 2 -18 -1 -38 -7 -44z"/>
<path d="M385 809 c-10 -15 3 -25 16 -12 7 7 7 13 1 17 -6 3 -14 1 -17 -5z"/>
<path d="M537 484 c-3 -3 -3 -12 0 -20 3 -8 2 -22 -2 -31 -4 -10 -9 -33 -12
-51 -3 -28 -1 -33 14 -30 12 2 20 17 25 48 12 64 -1 107 -25 84z"/>
</g>
</svg>
